<svg width="23" height="23" viewBox="0 0 23 23" fill="none" xmlns="http://www.w3.org/2000/svg">
<path d="M10.7333 2.29981L3.0666 2.2998M22.2333 19.1665L22.2333 6.89981C22.2333 6.05297 21.5468 5.36647 20.6999 5.36647L2.29994 5.36647C1.4531 5.36647 0.766603 6.05297 0.766603 6.8998L0.766602 19.1665C0.766601 20.0133 1.4531 20.6998 2.29994 20.6998L20.6999 20.6998C21.5468 20.6998 22.2333 20.0133 22.2333 19.1665ZM14.5666 16.0998C12.8729 16.0998 11.4999 14.7268 11.4999 13.0331C11.4999 11.3395 12.8729 9.96647 14.5666 9.96647C16.2603 9.96647 17.6333 11.3395 17.6333 13.0331C17.6333 14.7268 16.2603 16.0998 14.5666 16.0998Z" stroke="white"/>
</svg>
