<svg width="10" height="10" viewBox="0 0 10 10" fill="none" xmlns="http://www.w3.org/2000/svg">
  <path d="M5.58333 5L7.375 3.20833C7.54167 3.04167 7.54167 2.79167 7.375 2.625C7.20833 2.45833 6.95833 2.45833 6.79167 2.625L5 4.41667L3.20833 2.625C3.04167 2.45833 2.79167 2.45833 2.625 2.625C2.45833 2.79167 2.45833 3.04167 2.625 3.20833L4.41667 5L2.625 6.79167C2.54167 6.875 2.5 6.95833 2.5 7.08333C2.5 7.33333 2.66667 7.5 2.91667 7.5C3.04167 7.5 3.125 7.45833 3.20833 7.375L5 5.58333L6.79167 7.375C6.875 7.45833 6.95833 7.5 7.08333 7.5C7.20833 7.5 7.29167 7.45833 7.375 7.375C7.54167 7.20833 7.54167 6.95833 7.375 6.79167L5.58333 5Z" fill="#642088"/>
</svg>
